<?xml version="1.0" standalone="no"?><!DOCTYPE svg PUBLIC "-//W3C//DTD SVG 1.1//EN"
        "http://www.w3.org/Graphics/SVG/1.1/DTD/svg11.dtd">
<svg t="1762922461151" class="icon" viewBox="0 0 1024 1024" version="1.1" xmlns="http://www.w3.org/2000/svg"
     p-id="1426" width="200" height="200">
    <path d="M896.064 888.896a44.8 44.8 0 0 1 0 89.6H108.8a44.8 44.8 0 0 1 0-89.6h787.264z m-158.08-800.192l97.28 97.28a128 128 0 0 1 0 180.992l-369.536 369.536a128 128 0 0 1-59.456 33.664l-233.28 58.368a64 64 0 0 1-77.632-77.632l58.432-233.28a128 128 0 0 1 33.664-59.392l369.536-369.536a128 128 0 0 1 180.992 0z m158.08 613.504a44.8 44.8 0 0 1 0 89.6h-275.2a44.8 44.8 0 1 1 0-89.6h275.2z m-365.056-460.8L250.88 521.6a37.76 37.76 0 0 0-10.112 17.792l-48 191.872 191.808-48a37.76 37.76 0 0 0 17.856-10.112l280.192-280.256-151.552-151.552z m116.48-100.608a36.992 36.992 0 0 0-27.136 11.264l-25.28 25.216 151.552 151.552 25.28-25.216a36.992 36.992 0 0 0 11.264-27.2 36.992 36.992 0 0 0-11.264-27.136l-97.28-97.28a36.992 36.992 0 0 0-27.136-11.2z"
          fill="#122133" p-id="1427"></path>
</svg>